<svg viewBox="0 0 32 32" fill="none" xmlns="http://www.w3.org/2000/svg"><path d="M5 5a3 3 0 013-3h13a6 6 0 016 6v19a3 3 0 01-3 3H11a6 6 0 01-6-6V5z" fill="url(#prefix__paint0_linear_82_8948)"/><path d="M6 5a2 2 0 012-2h13a5 5 0 015 5v19a2 2 0 01-2 2H11a5 5 0 01-5-5V5z" fill="url(#prefix__paint1_linear_82_8948)"/><path d="M6 5a2 2 0 012-2h13a5 5 0 015 5v19a2 2 0 01-2 2H11a5 5 0 01-5-5V5z" fill="url(#prefix__paint2_radial_82_8948)"/><path d="M22 17v5.531A1.47 1.47 0 0120.531 24H15v-3a4.001 4.001 0 00-2.973-3.866L15.571 13 22 17z" fill="url(#prefix__paint3_radial_82_8948)"/><path d="M22 17.031a1.47 1.47 0 01-1.469 1.469h-6.41A3.991 3.991 0 0011 17h-1v-2.3a1.89 1.89 0 011.878-1.89l8.855-.053L22 12v5.031z" fill="url(#prefix__paint4_linear_82_8948)"/><path d="M22 17.031a1.47 1.47 0 01-1.469 1.469h-6.41A3.991 3.991 0 0011 17h-1v-2.3a1.89 1.89 0 011.878-1.89l8.855-.053L22 12v5.031z" fill="url(#prefix__paint5_radial_82_8948)" fill-opacity=".6"/><path d="M22 17.031a1.47 1.47 0 01-1.469 1.469h-6.41A3.991 3.991 0 0011 17h-1v-2.3a1.89 1.89 0 011.878-1.89l8.855-.053L22 12v5.031z" fill="url(#prefix__paint6_radial_82_8948)" fill-opacity=".1"/><path d="M20.531 8A1.47 1.47 0 0122 9.469v2.562a1.47 1.47 0 01-1.469 1.469h-8.076A2.455 2.455 0 0010 15.955V10.52A2.519 2.519 0 0112.519 8h8.012z" fill="url(#prefix__paint7_linear_82_8948)"/><path d="M20.531 8A1.47 1.47 0 0122 9.469v2.562a1.47 1.47 0 01-1.469 1.469h-8.076A2.455 2.455 0 0010 15.955V10.52A2.519 2.519 0 0112.519 8h8.012z" fill="url(#prefix__paint8_radial_82_8948)" fill-opacity=".8"/><rect x="1" y="18" width="13" height="13" rx="3" fill="url(#prefix__paint9_radial_82_8948)"/><rect x="1" y="18" width="13" height="13" rx="3" fill="url(#prefix__paint10_radial_82_8948)" fill-opacity=".65"/><path d="M11.7 21l-1.508 7H8.39l-.89-4.2-.932 4.2h-1.82L3.3 21h1.486l.894 4.62.888-4.62H8.39l.93 4.62.872-4.62H11.7z" fill="#fff"/><defs><radialGradient id="prefix__paint2_radial_82_8948" cx="0" cy="0" r="1" gradientUnits="userSpaceOnUse" gradientTransform="matrix(10.55557 20.58334 -15.67057 8.0362 12.389 9.77)"><stop offset=".177" stop-color="#fff"/><stop offset="1" stop-color="#EFEFEF"/></radialGradient><radialGradient id="prefix__paint3_radial_82_8948" cx="0" cy="0" r="1" gradientUnits="userSpaceOnUse" gradientTransform="matrix(27.5042 0 0 8.52474 21.416 24)"><stop offset=".18" stop-color="#1657F4"/><stop offset=".575" stop-color="#0036C4"/></radialGradient><radialGradient id="prefix__paint5_radial_82_8948" cx="0" cy="0" r="1" gradientUnits="userSpaceOnUse" gradientTransform="matrix(-7.9839 15.20967 -30.86976 -16.20424 21.946 13.745)"><stop offset=".14" stop-color="#D471FF"/><stop offset=".831" stop-color="#509DF5" stop-opacity="0"/></radialGradient><radialGradient id="prefix__paint6_radial_82_8948" cx="0" cy="0" r="1" gradientUnits="userSpaceOnUse" gradientTransform="matrix(0 13.3025 -40.1142 0 20.214 24.117)"><stop offset=".283" stop-color="#4F006F" stop-opacity="0"/><stop offset="1" stop-color="#4F006F"/></radialGradient><radialGradient id="prefix__paint8_radial_82_8948" cx="0" cy="0" r="1" gradientUnits="userSpaceOnUse" gradientTransform="matrix(-11.33488 2.92739 -7.66536 -29.68033 21.946 9.18)"><stop offset=".061" stop-color="#E4A7FE"/><stop offset=".539" stop-color="#E4A7FE" stop-opacity="0"/></radialGradient><radialGradient id="prefix__paint9_radial_82_8948" cx="0" cy="0" r="1" gradientUnits="userSpaceOnUse" gradientTransform="rotate(45 -21.228 10.207) scale(18.3848)"><stop offset=".081" stop-color="#367AF2"/><stop offset=".872" stop-color="#001A8F"/></radialGradient><radialGradient id="prefix__paint10_radial_82_8948" cx="0" cy="0" r="1" gradientUnits="userSpaceOnUse" gradientTransform="matrix(0 9.1 -10.3715 0 7.5 25.8)"><stop offset=".587" stop-color="#2763E5" stop-opacity="0"/><stop offset=".974" stop-color="#58AAFE"/></radialGradient><linearGradient id="prefix__paint0_linear_82_8948" x1="12.104" y1="2" x2="16.851" y2="29.972" gradientUnits="userSpaceOnUse"><stop stop-color="#BBB"/><stop offset="1" stop-color="#888"/></linearGradient><linearGradient id="prefix__paint1_linear_82_8948" x1="11.556" y1="3" x2="15.786" y2="29.035" gradientUnits="userSpaceOnUse"><stop stop-color="#fff"/><stop offset="1" stop-color="#EBEBEB"/></linearGradient><linearGradient id="prefix__paint4_linear_82_8948" x1="10.107" y1="21.094" x2="19.174" y2="21.094" gradientUnits="userSpaceOnUse"><stop stop-color="#66C0FF"/><stop offset=".256" stop-color="#0094F0"/></linearGradient><linearGradient id="prefix__paint7_linear_82_8948" x1="10.107" y1="12.852" x2="21.944" y2="13.029" gradientUnits="userSpaceOnUse"><stop stop-color="#9DEAFF"/><stop offset=".201" stop-color="#3BD5FF"/></linearGradient></defs></svg>