<svg xmlns="http://www.w3.org/2000/svg" viewBox="0 0 2048.25 2048.25">
<title>DynamicsNAV</title>
<g id="uniEDCD"><path d="M937 848l227 225v-1073h-456v817zM93 734l472 63v-797h-472v734zM1303 1211l472 465v-1676h-472v1211zM1966 2048q4 1 7 -2t3 -7v-2l-43 -233q0 -2 -2 -4.5t-4 -2.5q-7 0 -10 3l-78 80l-944 -932q-6 -6 -16 -8l-776 -104q-13 -2 -22 7t-9 21q0 11 7 18t17 9l766 104
l938 925q-4 4 -18 17.5t-29.5 29t-27.5 29t-12 16.5q0 7 9 9z" fill="#002050" transform="scale(1,-1) translate(0, -2048.25)" /></g>
</svg>