<svg xmlns="http://www.w3.org/2000/svg" viewBox="0 0 2048.25 2048.25">
<title>Invoicing</title>
<g id="uniF7C1"><path d="M1461 1331h-1031v205h1031v-205zM768 896h1280v-410q0 -74 -28 -139t-77 -114t-114 -77t-139 -28h-1332q-74 0 -139 28t-114 77t-77 114t-28 139v1562h1894v-998h-204v793h-1485v-1357q0 -32 12 -59.5t33 -48.5t48.5 -33t59.5 -12h256q31 0 59 12t49 33t33.5 49t12.5 59
v410zM1843 486v205h-870v-205q0 -40 -8.5 -79t-26.5 -74h752q31 0 59 12t49 33t33 48.5t12 59.5z" fill="#06BBFF" transform="scale(1,-1) translate(0, -2048.25)" /></g>
</svg>