<svg xmlns="http://www.w3.org/2000/svg" fill="none" viewBox="0 0 24 24"><path fill="#7611F0" d="M1.318 7.27a2.094 2.094 0 002.44 1.617L20.72 5.59c1.22-.237 2-1.415 1.744-2.63l-.226-1.073A2.294 2.294 0 0019.564.115l-16.77 3.26c-1.22.236-2 1.414-1.743 2.63l.267 1.265z"/><path fill="url(#prefix__a)" fill-opacity=".9" d="M1.318 7.27a2.094 2.094 0 002.44 1.617L20.72 5.59c1.22-.237 2-1.415 1.744-2.63l-.226-1.073A2.294 2.294 0 0019.564.115l-16.77 3.26c-1.22.236-2 1.414-1.743 2.63l.267 1.265z"/><path fill="url(#prefix__b)" fill-opacity=".6" d="M1.318 7.27a2.094 2.094 0 002.44 1.617L20.72 5.59c1.22-.237 2-1.415 1.744-2.63l-.226-1.073A2.294 2.294 0 0019.564.115l-16.77 3.26c-1.22.236-2 1.414-1.743 2.63l.267 1.265z"/><path fill="url(#prefix__c)" fill-opacity=".4" d="M1.318 7.27a2.094 2.094 0 002.44 1.617L20.72 5.59c1.22-.237 2-1.415 1.744-2.63l-.226-1.073A2.294 2.294 0 0019.564.115l-16.77 3.26c-1.22.236-2 1.414-1.743 2.63l.267 1.265z"/><path fill="#7611F0" d="M1 20a3 3 0 003 3h16.497a2.5 2.5 0 002.5-2.5v-1.564a2.5 2.5 0 00-2.5-2.5H4.701A3.701 3.701 0 011 12.736V20z"/><path fill="#A966FF" fill-opacity=".2" d="M1 20a3 3 0 003 3h16.497a2.5 2.5 0 002.5-2.5v-1.564a2.5 2.5 0 00-2.5-2.5H4.701A3.701 3.701 0 011 12.736V20z"/><path fill="url(#prefix__d)" fill-opacity=".4" d="M1 20a3 3 0 003 3h16.497a2.5 2.5 0 002.5-2.5v-1.564a2.5 2.5 0 00-2.5-2.5H4.701A3.701 3.701 0 011 12.736V20z"/><path fill="url(#prefix__e)" fill-opacity=".15" d="M1 20a3 3 0 003 3h16.497a2.5 2.5 0 002.5-2.5v-1.564a2.5 2.5 0 00-2.5-2.5H4.701A3.701 3.701 0 011 12.736V20z"/><path fill="url(#prefix__f)" fill-opacity=".3" d="M1 20a3 3 0 003 3h16.497a2.5 2.5 0 002.5-2.5v-1.564a2.5 2.5 0 00-2.5-2.5H4.701A3.701 3.701 0 011 12.736V20z"/><path fill="url(#prefix__g)" fill-opacity=".2" d="M1 20a3 3 0 003 3h16.497a2.5 2.5 0 002.5-2.5v-1.564a2.5 2.5 0 00-2.5-2.5H4.701A3.701 3.701 0 011 12.736V20z"/><path fill="#BC7FFF" d="M1 10.699a2.296 2.296 0 002.296 2.296h16.951a2.75 2.75 0 012.75 2.75v1.06V10.5a2.5 2.5 0 00-2.5-2.5H3.5A2.5 2.5 0 011 5.5V4.493 10.7z"/><path fill="url(#prefix__h)" d="M1 10.699a2.296 2.296 0 002.296 2.296h16.951a2.75 2.75 0 012.75 2.75v1.06V10.5a2.5 2.5 0 00-2.5-2.5H3.5A2.5 2.5 0 011 5.5V4.493 10.7z"/><path fill="url(#prefix__i)" fill-opacity=".8" d="M1 10.699a2.296 2.296 0 002.296 2.296h16.951a2.75 2.75 0 012.75 2.75v1.06V10.5a2.5 2.5 0 00-2.5-2.5H3.5A2.5 2.5 0 011 5.5V4.493 10.7z"/><path fill="url(#prefix__j)" d="M1 10.699a2.296 2.296 0 002.296 2.296h16.951a2.75 2.75 0 012.75 2.75v1.06V10.5a2.5 2.5 0 00-2.5-2.5H3.5A2.5 2.5 0 011 5.5V4.493 10.7z"/><path fill="#974CFF" d="M1 15.25A2.75 2.75 0 003.75 18h16.747a2.5 2.5 0 012.5 2.5v.315-5.326a2.499 2.499 0 00-2.5-2.498H3.75A2.75 2.75 0 011 10.241v-.945 5.954z"/><path fill="#A966FF" fill-opacity=".35" d="M1 15.25A2.75 2.75 0 003.75 18h16.747a2.5 2.5 0 012.5 2.5v.315-5.326a2.499 2.499 0 00-2.5-2.498H3.75A2.75 2.75 0 011 10.241v-.945 5.954z"/><path fill="url(#prefix__k)" fill-opacity=".4" d="M1 15.25A2.75 2.75 0 003.75 18h16.747a2.5 2.5 0 012.5 2.5v.315-5.326a2.499 2.499 0 00-2.5-2.498H3.75A2.75 2.75 0 011 10.241v-.945 5.954z"/><path fill="url(#prefix__l)" fill-opacity=".4" d="M1 15.25A2.75 2.75 0 003.75 18h16.747a2.5 2.5 0 012.5 2.5v.315-5.326a2.499 2.499 0 00-2.5-2.498H3.75A2.75 2.75 0 011 10.241v-.945 5.954z"/><path fill="url(#prefix__m)" fill-opacity=".6" d="M1 15.25A2.75 2.75 0 003.75 18h16.747a2.5 2.5 0 012.5 2.5v.315-5.326a2.499 2.499 0 00-2.5-2.498H3.75A2.75 2.75 0 011 10.241v-.945 5.954z"/><defs><linearGradient id="prefix__d" x1="15.115" x2="14.437" y1="17.868" y2="21.75" gradientUnits="userSpaceOnUse"><stop stop-color="#330072"/><stop offset="1" stop-color="#7611F0" stop-opacity="0"/></linearGradient><linearGradient id="prefix__e" x1="5.937" x2="5.937" y1="17.875" y2="23.625" gradientUnits="userSpaceOnUse"><stop stop-color="#9136F2" stop-opacity="0"/><stop offset=".836" stop-color="#B76AFF"/></linearGradient><linearGradient id="prefix__f" x1="6.999" x2=".999" y1="17.5" y2="17.552" gradientUnits="userSpaceOnUse"><stop stop-color="#9136F2" stop-opacity="0"/><stop offset=".836" stop-color="#B76AFF"/></linearGradient><linearGradient id="prefix__g" x1="16.374" x2="25.624" y1="17.552" y2="24.937" gradientUnits="userSpaceOnUse"><stop stop-color="#9136F2" stop-opacity="0"/><stop offset=".836" stop-color="#B76AFF"/></linearGradient><linearGradient id="prefix__h" x1="6.999" x2=".999" y1="10.271" y2="10.271" gradientUnits="userSpaceOnUse"><stop stop-color="#BC80FF" stop-opacity="0"/><stop offset=".836" stop-color="#ECB4FF"/></linearGradient><linearGradient id="prefix__i" x1="15.71" x2="22.997" y1="10.271" y2="10.271" gradientUnits="userSpaceOnUse"><stop stop-color="#BC7FFF" stop-opacity="0"/><stop offset=".836" stop-color="#ECB4FF"/></linearGradient><linearGradient id="prefix__k" x1="14.079" x2="13.778" y1="9.296" y2="16.31" gradientUnits="userSpaceOnUse"><stop stop-color="#6200D5"/><stop offset="1" stop-color="#3E008D" stop-opacity="0"/></linearGradient><linearGradient id="prefix__l" x1="16.999" x2="22.999" y1="14.928" y2="14.928" gradientUnits="userSpaceOnUse"><stop stop-color="#9B54FD" stop-opacity="0"/><stop offset=".836" stop-color="#ECB4FF"/></linearGradient><linearGradient id="prefix__m" x1="6.999" x2=".999" y1="14.928" y2="14.928" gradientUnits="userSpaceOnUse"><stop stop-color="#944EF6" stop-opacity="0"/><stop offset=".836" stop-color="#ECB4FF"/></linearGradient><radialGradient id="prefix__a" cx="0" cy="0" r="1" gradientTransform="matrix(-17.6221 9.78698 12.1498 21.108 11.822 -9.99)" gradientUnits="userSpaceOnUse"><stop offset=".625" stop-color="#974CFF"/><stop offset="1" stop-color="#5000B0"/></radialGradient><radialGradient id="prefix__b" cx="0" cy="0" r="1" gradientTransform="matrix(-16.0822 7.53178 18.1031 36.5821 23.004 -1.683)" gradientUnits="userSpaceOnUse"><stop offset=".147" stop-color="#DE91FF"/><stop offset=".678" stop-color="#D373FC" stop-opacity="0"/></radialGradient><radialGradient id="prefix__c" cx="0" cy="0" r="1" gradientTransform="matrix(-6.54309 9.37433 27.2688 11.6502 13.765 -5.006)" gradientUnits="userSpaceOnUse"><stop stop-color="#FFC7A3"/><stop offset=".831" stop-color="#DE67FD" stop-opacity="0"/></radialGradient><radialGradient id="prefix__j" cx="0" cy="0" r="1" gradientTransform="matrix(-7.17837 11.523 14.493 27.216 19.177 -4.444)" gradientUnits="userSpaceOnUse"><stop stop-color="#FFC7A3"/><stop offset=".831" stop-color="#DE67FD" stop-opacity="0"/></radialGradient></defs></svg>