<svg xmlns="http://www.w3.org/2000/svg" viewBox="0 0 2048.25 2048.25">
<title>Parature</title>
<g id="uniED7B"><path d="M1339 2048q94 -14 169.5 -55t129 -103.5t82.5 -143.5t29 -176q0 -115 -38.5 -227t-105.5 -211.5t-158 -184t-195.5 -146t-218 -96t-226.5 -34.5l-158 -671l-296 920q-21 65 -38 132t-17 136q0 45 9 86t22 83v1h1q1 10 9 31.5t18 45t20 44.5t16 32q-8 -31 -12 -62.5
t-4 -63.5q0 -89 30.5 -160.5t84.5 -121.5t128 -77t161 -27q89 0 179.5 27.5t173.5 76.5t155 116.5t125.5 146.5t84 167.5t30.5 180.5q0 106 -47.5 194.5t-142.5 139.5zM785 1363q-49 0 -90.5 15t-72 43t-48 68.5t-17.5 90.5q0 77 37.5 149.5t98 128.5t136 90t150.5 34
q49 0 91 -15t72.5 -43.5t47.5 -69t17 -90.5q0 -51 -17.5 -101t-47.5 -94.5t-70.5 -82t-87.5 -65t-98 -43t-101 -15.5z" fill="#0072C6" transform="scale(1,-1) translate(0, -2048.25)" /></g>
</svg>