<svg xmlns="http://www.w3.org/2000/svg" viewBox="0 0 2048.25 2048.25">
<title>Video</title>
<g id="uniF282"><path d="M1920 1536q26 0 45 -19t19 -45v-960q0 -26 -19 -45t-45 -19h-704v-392l-1152 201v1528l1152 207v-456h704zM905 1407h-158q-29 -140 -57 -279t-59 -279q-35 138 -70.5 273.5t-71.5 269.5h-158l220 -759h164zM1920 1472h-704v-299q42 51 100 79t124 28q60 0 112.5 -22.5
t91.5 -61.5t61.5 -91.5t22.5 -112.5t-22.5 -112.5t-61.5 -91.5t-91.5 -61.5t-112.5 -22.5q-66 0 -124 28t-100 79v-299h704v960zM1584 992l-240 147v-294z" fill="#0072C6" transform="scale(1,-1) translate(0, -2048.25)" /></g>
</svg>