<svg width="100%"  height="100%" viewBox="0 0 32 32" fill="none" xmlns="http://www.w3.org/2000/svg">
<path d="M12.4683 19.5301C10.9764 20.5689 10 22.2965 10 24.2522C10 27.4279 12.5744 30.0023 15.75 30.0023C17.2904 30.0023 18.6894 29.3965 19.7217 28.4102L27.7434 21.1002C29.126 19.8971 30 18.1245 30 16.1477C30 15.4756 29.8989 14.827 29.7112 14.2164C29.2297 13.2027 28.1966 12.502 26.9998 12.502C26.2008 12.502 25.4748 12.8143 24.9372 13.3235V13.3218L19.8935 18.0067C18.6314 19.241 16.9043 20.0018 14.9995 20.0018C14.1069 20.0018 13.2533 19.8347 12.4683 19.5301Z" fill="url(#paint0_linear_284_46007)"/>
<path d="M11.0703 19.7963L14.528 16.3525C16.1442 14.7427 17.1046 12.7154 17.4001 10.6094L17.646 10.3601C18.1513 8.42778 19.9091 7.00195 21.9998 7.00195C23.2484 7.00195 24.3783 7.5105 25.1936 8.33177L25.1952 8.33018L26.6872 9.84275L28.1763 11.378C28.4143 11.6394 28.6192 11.8966 28.7973 12.1498C28.9795 12.3935 29.1422 12.6634 29.2822 12.9551C29.6523 13.6886 29.8256 14.4017 29.9284 15.1241C30.0118 15.7105 29.9998 16.2325 29.9957 16.3503C29.9166 14.764 28.6054 13.5022 26.9995 13.5022C26.2005 13.5022 25.4745 13.8145 24.9368 14.3238V14.322L19.8932 19.0069C18.6311 20.2412 16.904 21.002 14.9992 21.002C13.5429 21.002 12.1905 20.5573 11.0703 19.7963Z" fill="url(#paint1_linear_284_46007)"/>
<path d="M11.0703 19.7963L14.528 16.3525C16.1442 14.7427 17.1046 12.7154 17.4001 10.6094L17.646 10.3601C18.1513 8.42778 19.9091 7.00195 21.9998 7.00195C23.2484 7.00195 24.3783 7.5105 25.1936 8.33177L25.1952 8.33018L26.6872 9.84275L28.1763 11.378C28.4143 11.6394 28.6192 11.8966 28.7973 12.1498C28.9795 12.3935 29.1422 12.6634 29.2822 12.9551C29.6523 13.6886 29.8256 14.4017 29.9284 15.1241C30.0118 15.7105 29.9998 16.2325 29.9957 16.3503C29.9166 14.764 28.6054 13.5022 26.9995 13.5022C26.2005 13.5022 25.4745 13.8145 24.9368 14.3238V14.322L19.8932 19.0069C18.6311 20.2412 16.904 21.002 14.9992 21.002C13.5429 21.002 12.1905 20.5573 11.0703 19.7963Z" fill="url(#paint2_linear_284_46007)"/>
<path d="M15.901 2.44251C15.4039 1.8913 14.5515 1.85458 14.0088 2.361L4.17812 11.5352C4.11624 11.5908 4.05542 11.6475 3.9957 11.7054L3.97576 11.724C2.75648 12.9156 2 14.5787 2 16.4182C2 18.4078 2.8854 20.1906 4.28368 21.3941L11.698 28.3319C10.6493 27.2903 10 25.8471 10 24.2523C10 22.6064 10.6915 21.1221 11.7998 20.074L11.7957 20.0701L15.5283 16.3525C19.3399 12.5562 19.5039 6.43746 15.901 2.44251Z" fill="url(#paint3_linear_284_46007)"/>
<defs>
<linearGradient id="paint0_linear_284_46007" x1="19.1033" y1="19.3171" x2="28.5894" y2="35.3813" gradientUnits="userSpaceOnUse">
<stop stop-color="#3C2F6B"/>
<stop offset="1" stop-color="#8673FF"/>
</linearGradient>
<linearGradient id="paint1_linear_284_46007" x1="25.2164" y1="6.11953" x2="31.3172" y2="24.3942" gradientUnits="userSpaceOnUse">
<stop stop-color="#CE7EFF"/>
<stop offset="0.95393" stop-color="#503C98"/>
</linearGradient>
<linearGradient id="paint2_linear_284_46007" x1="12.2521" y1="22.4741" x2="23.4935" y2="11.6481" gradientUnits="userSpaceOnUse">
<stop stop-color="#6133C2"/>
<stop offset="0.856242" stop-color="#8B65DC" stop-opacity="0"/>
</linearGradient>
<linearGradient id="paint3_linear_284_46007" x1="10.2493" y1="7.79104" x2="15.3827" y2="23.6121" gradientUnits="userSpaceOnUse">
<stop stop-color="#FBC8FF"/>
<stop offset="0.380208" stop-color="#E2A4FF"/>
<stop offset="1" stop-color="#9277FF"/>
</linearGradient>
</defs>
</svg>
