<svg viewBox="0 0 32 32" fill="none" xmlns="http://www.w3.org/2000/svg"><path d="M5 5a3 3 0 013-3h13a6 6 0 016 6v19a3 3 0 01-3 3H11a6 6 0 01-6-6V5z" fill="url(#prefix__paint0_linear_83_8978)"/><path d="M6 5a2 2 0 012-2h13a5 5 0 015 5v19a2 2 0 01-2 2H11a5 5 0 01-5-5V5z" fill="url(#prefix__paint1_linear_83_8978)"/><path d="M6 5a2 2 0 012-2h13a5 5 0 015 5v19a2 2 0 01-2 2H11a5 5 0 01-5-5V5z" fill="url(#prefix__paint2_radial_83_8978)"/><path d="M22 22.667c0 .736-.597 1.333-1.333 1.333H15v-3a4 4 0 00-4-4h-.771A5.003 5.003 0 0115 13.5h7v9.167z" fill="url(#prefix__paint3_radial_83_8978)"/><path d="M22 22.667c0 .736-.597 1.333-1.333 1.333H15v-3a4 4 0 00-4-4h-.771A5.003 5.003 0 0115 13.5h7v9.167z" fill="url(#prefix__paint4_radial_83_8978)" fill-opacity=".8"/><path d="M20.546 8C21.349 8 22 8.652 22 9.455v5.09C22 15.35 21.349 16 20.546 16h-7.863c-.842 0-1.593.391-2.084 1H10v-6.318A2.683 2.683 0 0112.683 8h7.863z" fill="url(#prefix__paint5_linear_83_8978)"/><path d="M20.546 8C21.349 8 22 8.652 22 9.455v5.09C22 15.35 21.349 16 20.546 16h-7.863c-.842 0-1.593.391-2.084 1H10v-6.318A2.683 2.683 0 0112.683 8h7.863z" fill="url(#prefix__paint6_linear_83_8978)"/><path d="M18.5 14a2.5 2.5 0 100-5 2.5 2.5 0 000 5z" fill="url(#prefix__paint7_linear_83_8978)"/><path d="M18.5 13a1.5 1.5 0 100-3 1.5 1.5 0 000 3z" fill="url(#prefix__paint8_linear_83_8978)"/><path d="M20.637 18c.2 0 .363.163.363.363v3.274c0 .2-.163.363-.363.363h-3.274a.364.364 0 01-.363-.363v-3.274c0-.2.163-.363.363-.363h3.274z" fill="url(#prefix__paint9_linear_83_8978)"/><rect x="1" y="18" width="13" height="13" rx="3" fill="url(#prefix__paint10_radial_83_8978)"/><rect x="1" y="18" width="13" height="13" rx="3" fill="url(#prefix__paint11_radial_83_8978)" fill-opacity=".6"/><path d="M9.52 22.308H7.054v1.684h2.264v1.299H7.055V28H5.48v-7H9.52v1.308z" fill="#fff"/><defs><linearGradient id="prefix__paint0_linear_83_8978" x1="12.104" y1="2" x2="16.851" y2="29.972" gradientUnits="userSpaceOnUse"><stop stop-color="#BBB"/><stop offset="1" stop-color="#888"/></linearGradient><linearGradient id="prefix__paint1_linear_83_8978" x1="11.556" y1="3" x2="15.786" y2="29.035" gradientUnits="userSpaceOnUse"><stop stop-color="#fff"/><stop offset="1" stop-color="#EBEBEB"/></linearGradient><linearGradient id="prefix__paint5_linear_83_8978" x1="9.293" y1="15.702" x2="22.689" y2="9.353" gradientUnits="userSpaceOnUse"><stop offset=".227" stop-color="#15B4D5"/><stop offset="1" stop-color="#43E5CA"/></linearGradient><linearGradient id="prefix__paint6_linear_83_8978" x1="12.582" y1="12.43" x2="9" y2="12.43" gradientUnits="userSpaceOnUse"><stop offset=".184" stop-color="#29CBDC" stop-opacity="0"/><stop offset="1" stop-color="#36DFF1"/></linearGradient><linearGradient id="prefix__paint7_linear_83_8978" x1="16.714" y1="9.357" x2="19.929" y2="14" gradientUnits="userSpaceOnUse"><stop stop-color="#119FC5"/><stop offset="1" stop-color="#22918B"/></linearGradient><linearGradient id="prefix__paint8_linear_83_8978" x1="17.429" y1="10.214" x2="19.357" y2="13" gradientUnits="userSpaceOnUse"><stop stop-color="#06517B"/><stop offset="1" stop-color="#1A7F7C"/></linearGradient><linearGradient id="prefix__paint9_linear_83_8978" x1="17.571" y1="18.286" x2="20.143" y2="22" gradientUnits="userSpaceOnUse"><stop stop-color="#119FC5"/><stop offset="1" stop-color="#20AC9D"/></linearGradient><radialGradient id="prefix__paint2_radial_83_8978" cx="0" cy="0" r="1" gradientUnits="userSpaceOnUse" gradientTransform="matrix(10.55557 20.58334 -15.67057 8.0362 12.389 9.77)"><stop offset=".177" stop-color="#fff"/><stop offset="1" stop-color="#EFEFEF"/></radialGradient><radialGradient id="prefix__paint3_radial_83_8978" cx="0" cy="0" r="1" gradientUnits="userSpaceOnUse" gradientTransform="matrix(-8.09978 -14.25009 12.40858 -7.05306 19.067 25.875)"><stop offset=".008" stop-color="#1A7F7C"/><stop offset=".45" stop-color="#14717C"/><stop offset=".803" stop-color="#08567B"/></radialGradient><radialGradient id="prefix__paint4_radial_83_8978" cx="0" cy="0" r="1" gradientUnits="userSpaceOnUse" gradientTransform="matrix(-5.29244 -5.3907 4.17243 -4.09638 12.808 15.375)"><stop stop-color="#06517B"/><stop offset=".992" stop-color="#06517B" stop-opacity="0"/></radialGradient><radialGradient id="prefix__paint10_radial_83_8978" cx="0" cy="0" r="1" gradientUnits="userSpaceOnUse" gradientTransform="rotate(45 -21.228 10.207) scale(18.3848)"><stop offset=".063" stop-color="#009BBC"/><stop offset=".591" stop-color="#01657D"/><stop offset=".941" stop-color="#014354"/></radialGradient><radialGradient id="prefix__paint11_radial_83_8978" cx="0" cy="0" r="1" gradientUnits="userSpaceOnUse" gradientTransform="matrix(0 9.1 -10.3594 0 7.5 25.8)"><stop offset=".567" stop-color="#1E8581" stop-opacity="0"/><stop offset=".974" stop-color="#1ECBE6"/></radialGradient></defs></svg>