<svg viewBox="0 0 24 24" fill="none" xmlns="http://www.w3.org/2000/svg">
<path d="M23 1H8C7.44771 1 7 1.44771 7 2V17C7 17.5523 7.44771 18 8 18H23C23.5523 18 24 17.5523 24 17V2C24 1.44771 23.5523 1 23 1Z" fill="url(#paint0_linear)"/>
<mask id="mask0" mask-type="alpha" maskUnits="userSpaceOnUse" x="7" y="1" width="17" height="17">
<path d="M23 1H8C7.44771 1 7 1.44771 7 2V17C7 17.5523 7.44771 18 8 18H23C23.5523 18 24 17.5523 24 17V2C24 1.44771 23.5523 1 23 1Z" fill="url(#paint1_linear)"/>
</mask>
<g mask="url(#mask0)">
<g filter="url(#filter0_dd)">
<path d="M20 4H5C4.44771 4 4 4.44771 4 5V20C4 20.5523 4.44771 21 5 21H20C20.5523 21 21 20.5523 21 20V5C21 4.44771 20.5523 4 20 4Z" fill="url(#paint2_linear)"/>
</g>
</g>
<path d="M20 4H5C4.44771 4 4 4.44771 4 5V20C4 20.5523 4.44771 21 5 21H20C20.5523 21 21 20.5523 21 20V5C21 4.44771 20.5523 4 20 4Z" fill="url(#paint3_linear)"/>
<mask id="mask1" mask-type="alpha" maskUnits="userSpaceOnUse" x="4" y="4" width="17" height="17">
<path d="M20 4H5C4.44771 4 4 4.44771 4 5V20C4 20.5523 4.44771 21 5 21H20C20.5523 21 21 20.5523 21 20V5C21 4.44771 20.5523 4 20 4Z" fill="url(#paint4_linear)"/>
</mask>
<g mask="url(#mask1)">
<g filter="url(#filter1_dd)">
<path d="M17 7H2C1.44771 7 1 7.44771 1 8V23C1 23.5523 1.44771 24 2 24H17C17.5523 24 18 23.5523 18 23V8C18 7.44771 17.5523 7 17 7Z" fill="url(#paint5_linear)"/>
</g>
</g>
<path d="M17 7H2C1.44771 7 1 7.44771 1 8V23C1 23.5523 1.44771 24 2 24H17C17.5523 24 18 23.5523 18 23V8C18 7.44771 17.5523 7 17 7Z" fill="url(#paint6_linear)"/>
<g filter="url(#filter2_dd)">
<path d="M5 11H9V15H5V11Z" fill="white"/>
<path d="M5 16V20H9V16H5Z" fill="white"/>
<path d="M10 16V20H14V16H10Z" fill="white"/>
<path d="M14 15V11H10V15H14Z" fill="white"/>
</g>
<defs>
<filter id="filter0_dd" x="2.5" y="2.5" width="20" height="20" filterUnits="userSpaceOnUse" color-interpolation-filters="sRGB">
<feFlood flood-opacity="0" result="BackgroundImageFix"/>
<feColorMatrix in="SourceAlpha" type="matrix" values="0 0 0 0 0 0 0 0 0 0 0 0 0 0 0 0 0 0 127 0"/>
<feOffset/>
<feGaussianBlur stdDeviation="0.25"/>
<feColorMatrix type="matrix" values="0 0 0 0 0 0 0 0 0 0 0 0 0 0 0 0 0 0 0.1 0"/>
<feBlend mode="normal" in2="BackgroundImageFix" result="effect1_dropShadow"/>
<feColorMatrix in="SourceAlpha" type="matrix" values="0 0 0 0 0 0 0 0 0 0 0 0 0 0 0 0 0 0 127 0"/>
<feOffset/>
<feGaussianBlur stdDeviation="0.75"/>
<feColorMatrix type="matrix" values="0 0 0 0 0 0 0 0 0 0 0 0 0 0 0 0 0 0 0.19 0"/>
<feBlend mode="normal" in2="effect1_dropShadow" result="effect2_dropShadow"/>
<feBlend mode="normal" in="SourceGraphic" in2="effect2_dropShadow" result="shape"/>
</filter>
<filter id="filter1_dd" x="-0.5" y="5.5" width="20" height="20" filterUnits="userSpaceOnUse" color-interpolation-filters="sRGB">
<feFlood flood-opacity="0" result="BackgroundImageFix"/>
<feColorMatrix in="SourceAlpha" type="matrix" values="0 0 0 0 0 0 0 0 0 0 0 0 0 0 0 0 0 0 127 0"/>
<feOffset/>
<feGaussianBlur stdDeviation="0.25"/>
<feColorMatrix type="matrix" values="0 0 0 0 0 0 0 0 0 0 0 0 0 0 0 0 0 0 0.1 0"/>
<feBlend mode="normal" in2="BackgroundImageFix" result="effect1_dropShadow"/>
<feColorMatrix in="SourceAlpha" type="matrix" values="0 0 0 0 0 0 0 0 0 0 0 0 0 0 0 0 0 0 127 0"/>
<feOffset/>
<feGaussianBlur stdDeviation="0.75"/>
<feColorMatrix type="matrix" values="0 0 0 0 0 0 0 0 0 0 0 0 0 0 0 0 0 0 0.19 0"/>
<feBlend mode="normal" in2="effect1_dropShadow" result="effect2_dropShadow"/>
<feBlend mode="normal" in="SourceGraphic" in2="effect2_dropShadow" result="shape"/>
</filter>
<filter id="filter2_dd" x="3.5" y="9.5" width="12" height="12" filterUnits="userSpaceOnUse" color-interpolation-filters="sRGB">
<feFlood flood-opacity="0" result="BackgroundImageFix"/>
<feColorMatrix in="SourceAlpha" type="matrix" values="0 0 0 0 0 0 0 0 0 0 0 0 0 0 0 0 0 0 127 0"/>
<feOffset/>
<feGaussianBlur stdDeviation="0.25"/>
<feColorMatrix type="matrix" values="0 0 0 0 0 0 0 0 0 0 0 0 0 0 0 0 0 0 0.1 0"/>
<feBlend mode="normal" in2="BackgroundImageFix" result="effect1_dropShadow"/>
<feColorMatrix in="SourceAlpha" type="matrix" values="0 0 0 0 0 0 0 0 0 0 0 0 0 0 0 0 0 0 127 0"/>
<feOffset/>
<feGaussianBlur stdDeviation="0.75"/>
<feColorMatrix type="matrix" values="0 0 0 0 0 0 0 0 0 0 0 0 0 0 0 0 0 0 0.19 0"/>
<feBlend mode="normal" in2="effect1_dropShadow" result="effect2_dropShadow"/>
<feBlend mode="normal" in="SourceGraphic" in2="effect2_dropShadow" result="shape"/>
</filter>
<linearGradient id="paint0_linear" x1="19.7718" y1="16.8989" x2="10.9711" y2="1.6557" gradientUnits="userSpaceOnUse">
<stop stop-color="#0C59A4"/>
<stop offset="1" stop-color="#0078D4"/>
</linearGradient>
<linearGradient id="paint1_linear" x1="19.7718" y1="16.8989" x2="10.9711" y2="1.6557" gradientUnits="userSpaceOnUse">
<stop stop-color="#0C59A4"/>
<stop offset="1" stop-color="#0078D4"/>
</linearGradient>
<linearGradient id="paint2_linear" x1="16.7718" y1="19.8989" x2="7.97109" y2="4.6557" gradientUnits="userSpaceOnUse">
<stop stop-color="#0078D4"/>
<stop offset="1" stop-color="#28AFEA"/>
</linearGradient>
<linearGradient id="paint3_linear" x1="16.7718" y1="19.8989" x2="7.97109" y2="4.6557" gradientUnits="userSpaceOnUse">
<stop stop-color="#0078D4"/>
<stop offset="1" stop-color="#28AFEA"/>
</linearGradient>
<linearGradient id="paint4_linear" x1="16.7718" y1="19.8989" x2="7.97109" y2="4.6557" gradientUnits="userSpaceOnUse">
<stop stop-color="#0078D4"/>
<stop offset="1" stop-color="#28AFEA"/>
</linearGradient>
<linearGradient id="paint5_linear" x1="13.7718" y1="22.8989" x2="4.97109" y2="7.6557" gradientUnits="userSpaceOnUse">
<stop stop-color="#1493DF"/>
<stop offset="1" stop-color="#50E6FF"/>
</linearGradient>
<linearGradient id="paint6_linear" x1="13.7718" y1="22.8989" x2="4.97109" y2="7.6557" gradientUnits="userSpaceOnUse">
<stop stop-color="#1493DF"/>
<stop offset="1" stop-color="#50E6FF"/>
</linearGradient>
</defs>
</svg>
