<svg width="32" height="32" viewBox="0 0 32 32" fill="none" xmlns="http://www.w3.org/2000/svg">
<g clip-path="url(#clip0_4966_1784)">
<path d="M12.9537 29.9983C12.4531 29.9983 11.9605 29.43 11.5199 28.3473C11.4905 28.2751 11.4613 28.2006 11.4324 28.1238C11.4124 28.0707 11.3927 28.0163 11.373 27.9612C11.2041 27.4886 11.0667 27.1047 10.9407 26.7977C10.731 26.2866 10.5521 25.9885 10.3102 25.8488C9.92308 25.6255 9.26549 25.7451 7.95068 25.9847C7.89311 25.9952 7.83613 26.0053 7.78015 26.0145C6.48501 26.2281 5.6625 26.097 5.39542 25.6345C4.8643 24.7119 6.34564 22.9778 11.7799 13.5654C11.3526 14.3056 11.1275 15.1455 11.1275 16.0002C11.1276 16.8548 11.3529 17.6943 11.7802 18.4344C17.2161 27.8496 17.9748 29.998 19.0398 29.998L12.9537 29.9983Z" fill="url(#paint0_linear_4966_1784)"/>
<path d="M12.9537 29.9983C12.4531 29.9983 11.9605 29.43 11.5199 28.3473C11.4905 28.2751 11.4613 28.2006 11.4324 28.1238C11.4124 28.0707 11.3927 28.0163 11.373 27.9612C11.2041 27.4886 11.0667 27.1047 10.9407 26.7977C10.731 26.2866 10.5521 25.9885 10.3102 25.8488C9.92308 25.6255 9.26549 25.7451 7.95068 25.9847C7.89311 25.9952 7.83613 26.0053 7.78015 26.0145C6.48501 26.2281 5.6625 26.097 5.39542 25.6345C4.8643 24.7119 6.34564 22.9778 11.7799 13.5654C11.3526 14.3056 11.1275 15.1455 11.1275 16.0002C11.1276 16.8548 11.3529 17.6943 11.7802 18.4344C17.2161 27.8496 17.9748 29.998 19.0398 29.998L12.9537 29.9983Z" fill="url(#paint1_linear_4966_1784)" fill-opacity="0.7"/>
<path d="M12.9535 2C14.0181 2.00106 15 4 20.2132 13.5696C20.1095 13.3899 19.9946 13.2174 19.8696 13.0534C19.8005 12.9627 19.7283 12.8745 19.6531 12.789C19.5144 12.6313 19.3655 12.4825 19.2075 12.344C19.0752 12.2279 18.9362 12.1189 18.7916 12.0175C18.7333 11.9766 18.6739 11.9373 18.6138 11.899C18.5861 11.8813 18.5582 11.8637 18.5301 11.8466C18.4973 11.8266 18.4647 11.8065 18.4315 11.7873C18.2932 11.7075 18.1511 11.6346 18.0064 11.5691C17.3767 11.2837 16.6912 11.1349 15.9962 11.1349C15.9345 11.1349 15.873 11.1358 15.8116 11.136C15.8741 11.136 15.937 11.1366 16.0002 11.1366C15.7928 11.1366 15.5863 11.1497 15.3819 11.1759C15.2687 11.1904 15.1558 11.2094 15.044 11.2317C14.8381 11.273 14.635 11.3272 14.4361 11.3947C14.2694 11.4512 14.1056 11.5173 13.9455 11.5919C13.881 11.6219 13.8173 11.6536 13.754 11.6864C13.7248 11.7016 13.6958 11.7174 13.6669 11.7332C13.6332 11.7516 13.5993 11.7698 13.566 11.789C13.4278 11.8688 13.2939 11.9552 13.1649 12.0477C12.6028 12.4504 12.1312 12.9694 11.7837 13.5713C6.36903 22.9498 4.87809 24.7042 5.39284 25.6293L2.35583 20.3696C2.189 20.0806 2.243 19.6684 2.50968 19.1525C2.6699 18.8427 2.90687 18.4954 3.21907 18.1149C3.25502 18.0711 3.2918 18.0267 3.32961 17.9821C4.11351 17.0587 4.54208 16.5535 4.61564 16.1343C4.62332 16.0907 4.62758 16.0481 4.62761 16.0061C4.62761 15.5591 4.19526 15.049 3.33018 14.03C3.2923 13.9854 3.25507 13.9411 3.21907 13.8972C2.41258 12.9142 2.10806 12.1536 2.33247 11.6864L2.35583 11.642C2.40456 11.5578 2.46758 11.4847 2.55013 11.4215C2.47204 11.4742 2.41079 11.5424 2.35868 11.6295L5.39512 6.36967C5.56196 6.0807 5.94601 5.92091 6.52617 5.89389C6.87449 5.87778 7.29359 5.90954 7.77915 5.98962C7.83507 5.99885 7.89202 6.00877 7.94952 6.01925C9.1413 6.23644 9.79353 6.35498 10.1934 6.20899C10.2349 6.19386 10.2738 6.17588 10.3102 6.15486C10.6973 5.93134 10.9223 5.30184 11.3723 4.0432C11.392 3.98813 11.4121 3.93388 11.4321 3.88081C11.8802 2.69085 12.3865 2.03918 12.9033 2H12.9535Z" fill="url(#paint2_linear_4966_1784)"/>
<path d="M26.5965 6.36414C27.1284 7.28547 26 8.99993 20.2301 18.4041C20.5826 17.7834 20.7933 17.0941 20.8496 16.3853C20.8585 16.2745 20.8633 16.1633 20.8645 16.0518C20.8647 16.0346 20.8653 16.0175 20.8653 16.0003L20.8652 15.9982L20.8628 15.8383C20.8365 15.0392 20.6136 14.2581 20.213 13.5643C20.2065 13.553 20.1997 13.5417 20.1931 13.5304C14.7755 4.14486 14.017 2.00205 12.9533 2.00196L12.9546 2.00204L19.0394 2.00171C19.5736 2.00173 20.0983 2.64849 20.5609 3.87692C20.5809 3.93003 20.6006 3.98443 20.6203 4.03953C20.8794 4.76423 21.0643 5.28022 21.2481 5.63032C21.2781 5.68756 21.3085 5.74015 21.3389 5.78869C21.4452 5.95886 21.5547 6.07709 21.6824 6.15087C22.0695 6.37437 22.7274 6.25495 24.0425 6.0153C24.1 6.00481 24.157 5.99469 24.213 5.98545C25.4456 5.78216 26.2485 5.8921 26.5536 6.30183C26.5686 6.32219 26.5839 6.3423 26.5965 6.36414Z" fill="url(#paint3_linear_4966_1784)"/>
<path d="M26.5965 6.36414C27.1284 7.28547 26 8.99993 20.2301 18.4041C20.5826 17.7834 20.7933 17.0941 20.8496 16.3853C20.8585 16.2745 20.8633 16.1633 20.8645 16.0518C20.8647 16.0346 20.8653 16.0175 20.8653 16.0003L20.8652 15.9982L20.8628 15.8383C20.8365 15.0392 20.6136 14.2581 20.213 13.5643C20.2065 13.553 20.1997 13.5417 20.1931 13.5304C14.7755 4.14486 14.017 2.00205 12.9533 2.00196L12.9546 2.00204L19.0394 2.00171C19.5736 2.00173 20.0983 2.64849 20.5609 3.87692C20.5809 3.93003 20.6006 3.98443 20.6203 4.03953C20.8794 4.76423 21.0643 5.28022 21.2481 5.63032C21.2781 5.68756 21.3085 5.74015 21.3389 5.78869C21.4452 5.95886 21.5547 6.07709 21.6824 6.15087C22.0695 6.37437 22.7274 6.25495 24.0425 6.0153C24.1 6.00481 24.157 5.99469 24.213 5.98545C25.4456 5.78216 26.2485 5.8921 26.5536 6.30183C26.5686 6.32219 26.5839 6.3423 26.5965 6.36414Z" fill="url(#paint4_linear_4966_1784)" fill-opacity="0.5"/>
<path d="M26.5965 6.36414C27.1284 7.28547 26 8.99993 20.2301 18.4041C20.5826 17.7834 20.7933 17.0941 20.8496 16.3853C20.8585 16.2745 20.8633 16.1633 20.8645 16.0518C20.8647 16.0346 20.8653 16.0175 20.8653 16.0003L20.8652 15.9982L20.8628 15.8383C20.8365 15.0392 20.6136 14.2581 20.213 13.5643C20.2065 13.553 20.1997 13.5417 20.1931 13.5304C14.7755 4.14486 14.017 2.00205 12.9533 2.00196L12.9546 2.00204L19.0394 2.00171C19.5736 2.00173 20.0983 2.64849 20.5609 3.87692C20.5809 3.93003 20.6006 3.98443 20.6203 4.03953C20.8794 4.76423 21.0643 5.28022 21.2481 5.63032C21.2781 5.68756 21.3085 5.74015 21.3389 5.78869C21.4452 5.95886 21.5547 6.07709 21.6824 6.15087C22.0695 6.37437 22.7274 6.25495 24.0425 6.0153C24.1 6.00481 24.157 5.99469 24.213 5.98545C25.4456 5.78216 26.2485 5.8921 26.5536 6.30183C26.5686 6.32219 26.5839 6.3423 26.5965 6.36414Z" fill="url(#paint5_linear_4966_1784)"/>
<path d="M29.6441 11.6417C29.811 11.9308 29.7573 12.3432 29.4903 12.8594C29.3605 13.1102 29.1798 13.3855 28.9501 13.6833C28.8963 13.7531 28.8402 13.8247 28.7809 13.897C28.7449 13.9408 28.7077 13.9851 28.6698 14.0297C27.8049 15.0486 27.3725 15.5583 27.3724 16.0052C27.3724 16.4522 27.8048 16.9618 28.6698 17.9807C28.7077 18.0253 28.7449 18.0696 28.7809 18.1134C29.6134 19.1281 29.9109 19.9061 29.6441 20.3687C29.6345 20.3854 29.6225 20.4007 29.6117 20.4166L26.598 25.6382C26.3476 26.0716 25.6093 26.2138 24.4516 26.0541C24.3744 26.0435 24.2949 26.0316 24.214 26.0182C24.1581 26.009 24.1011 25.9991 24.0436 25.9886C23.5499 25.8986 23.1486 25.8256 22.8197 25.7812C22.2724 25.7073 21.9248 25.7129 21.683 25.8524C21.296 26.076 21.0708 26.7056 20.6209 27.9641C20.6012 28.0192 20.581 28.0734 20.561 28.1265C20.0985 29.3549 19.5738 30.0016 19.0397 30.0017C17.9751 30.0004 17.2142 27.8506 11.7799 18.4382C12.2072 19.1783 12.8222 19.7927 13.5622 20.22C14.3023 20.6472 15.1419 20.8723 15.9964 20.8724C16.0016 20.8724 16.0072 20.8718 16.0124 20.8718H16.1599C16.959 20.8456 17.7402 20.6228 18.434 20.2223C19.1279 19.8216 19.7119 19.2562 20.1343 18.5773L20.2163 18.4399C25.6518 9.02532 27.1331 7.29352 26.6009 6.37109L29.6441 11.6417Z" fill="url(#paint6_linear_4966_1784)"/>
<path d="M29.6441 11.6417C29.811 11.9308 29.7573 12.3432 29.4903 12.8594C29.3605 13.1102 29.1798 13.3855 28.9501 13.6833C28.8963 13.7531 28.8402 13.8247 28.7809 13.897C28.7449 13.9408 28.7077 13.9851 28.6698 14.0297C27.8049 15.0486 27.3725 15.5583 27.3724 16.0052C27.3724 16.4522 27.8048 16.9618 28.6698 17.9807C28.7077 18.0253 28.7449 18.0696 28.7809 18.1134C29.6134 19.1281 29.9109 19.9061 29.6441 20.3687C29.6345 20.3854 29.6225 20.4007 29.6117 20.4166L26.598 25.6382C26.3476 26.0716 25.6093 26.2138 24.4516 26.0541C24.3744 26.0435 24.2949 26.0316 24.214 26.0182C24.1581 26.009 24.1011 25.9991 24.0436 25.9886C23.5499 25.8986 23.1486 25.8256 22.8197 25.7812C22.2724 25.7073 21.9248 25.7129 21.683 25.8524C21.296 26.076 21.0708 26.7056 20.6209 27.9641C20.6012 28.0192 20.581 28.0734 20.561 28.1265C20.0985 29.3549 19.5738 30.0016 19.0397 30.0017C17.9751 30.0004 17.2142 27.8506 11.7799 18.4382C12.2072 19.1783 12.8222 19.7927 13.5622 20.22C14.3023 20.6472 15.1419 20.8723 15.9964 20.8724C16.0016 20.8724 16.0072 20.8718 16.0124 20.8718H16.1599C16.959 20.8456 17.7402 20.6228 18.434 20.2223C19.1279 19.8216 19.7119 19.2562 20.1343 18.5773L20.2163 18.4399C25.6518 9.02532 27.1331 7.29352 26.6009 6.37109L29.6441 11.6417Z" fill="url(#paint7_linear_4966_1784)"/>
</g>
<defs>
<linearGradient id="paint0_linear_4966_1784" x1="5.20835" y1="20.9584" x2="26.208" y2="26.0639" gradientUnits="userSpaceOnUse">
<stop stop-color="#2052CB"/>
<stop offset="0.249589" stop-color="#6864F6"/>
<stop offset="0.653241" stop-color="#7B7BFF"/>
<stop offset="1" stop-color="#4894FE"/>
</linearGradient>
<linearGradient id="paint1_linear_4966_1784" x1="15.5625" y1="30.0001" x2="15.5625" y2="24.4584" gradientUnits="userSpaceOnUse">
<stop stop-color="#4894FE"/>
<stop offset="1" stop-color="#6864F6" stop-opacity="0"/>
</linearGradient>
<linearGradient id="paint2_linear_4966_1784" x1="1.54522" y1="18.4401" x2="17.9778" y2="9.15908" gradientUnits="userSpaceOnUse">
<stop stop-color="#58AAFE"/>
<stop offset="0.609083" stop-color="#6864F6"/>
<stop offset="0.830547" stop-color="#4A43CB"/>
<stop offset="1" stop-color="#3D35B1"/>
</linearGradient>
<linearGradient id="paint3_linear_4966_1784" x1="13.8577" y1="1.08727" x2="26.9543" y2="9.31155" gradientUnits="userSpaceOnUse">
<stop stop-color="#BABAFF"/>
<stop offset="0.637829" stop-color="#7B7BFF"/>
<stop offset="1" stop-color="#5750E2"/>
</linearGradient>
<linearGradient id="paint4_linear_4966_1784" x1="24.3124" y1="10.4583" x2="18.0415" y2="1.99993" gradientUnits="userSpaceOnUse">
<stop stop-color="#AC80FF" stop-opacity="0"/>
<stop offset="1" stop-color="#FFBAC7"/>
</linearGradient>
<linearGradient id="paint5_linear_4966_1784" x1="22.6892" y1="7.72548" x2="22.6892" y2="1.70826" gradientUnits="userSpaceOnUse">
<stop stop-color="#8F8FFF" stop-opacity="0"/>
<stop offset="0.7" stop-color="#FECBE6" stop-opacity="0.4"/>
<stop offset="1" stop-color="#FFDAC2"/>
</linearGradient>
<linearGradient id="paint6_linear_4966_1784" x1="33.2083" y1="14.6874" x2="15.8462" y2="26.0446" gradientUnits="userSpaceOnUse">
<stop stop-color="#BABAFF"/>
<stop offset="0.533177" stop-color="#6864F6"/>
<stop offset="0.760072" stop-color="#5750E2"/>
<stop offset="1" stop-color="#163697"/>
</linearGradient>
<linearGradient id="paint7_linear_4966_1784" x1="19.7916" y1="18.0416" x2="29.7083" y2="8.1249" gradientUnits="userSpaceOnUse">
<stop offset="0.586768" stop-color="#AC80FF" stop-opacity="0"/>
<stop offset="1" stop-color="#FFC7A3"/>
</linearGradient>
<clipPath id="clip0_4966_1784">
<rect width="32" height="32" fill="white"/>
</clipPath>
</defs>
</svg>
