<svg xmlns="http://www.w3.org/2000/svg" viewBox="0 0 2048.25 2048.25">
<title>OfficeStore</title>
<g id="uniEA96"><path d="M1920 1536v-1260q0 -30 -11.5 -57t-32 -47.5t-47.5 -32t-57 -11.5h-1624q-30 0 -57 11.5t-47.5 32t-32 47.5t-11.5 57v1260h525v64q0 90 34 169t93.5 138.5t138.5 93.5t169 34t169 -34t138.5 -93.5t93.5 -138.5t34 -169v-64h152q-2 46 -9.5 83.5t-21.5 67.5
q-15 98 -62 183q52 -21 88 -53t59 -74.5t34 -94.5t14 -112h271zM627 1536h156q4 72 19 131t47 105q24 15 52 24t59 9q43 0 84 -19q-44 -12 -73.5 -33.5t-47.5 -52.5t-26.5 -72t-11.5 -92h408v64q0 69 -26.5 129.5t-71.5 105.5t-105.5 71.5t-129.5 26.5t-129.5 -26.5
t-105.5 -71.5t-71.5 -105.5t-26.5 -129.5v-64zM896 768h-384v-384h384v384zM896 1280h-384v-384h384v384zM1408 768h-384v-384h384v384zM1408 1280h-384v-384h384v384z" fill="#0078D7" transform="scale(1,-1) translate(0, -2048.25)" /></g>
</svg>