<svg xmlns="http://www.w3.org/2000/svg" viewBox="0 0 2048.25 2048.25">
<title>MyAnalytics</title>
<g id="uniF1DE"><path d="M2048 1024q0 -142 -36.5 -272.5t-103 -244.5t-160 -207.5t-207.5 -160t-245 -103t-272 -36.5q-142 0 -272.5 36.5t-244.5 103t-207.5 160t-160 207.5t-103 245t-36.5 272q0 26 19 45t45 19t45 -19t19 -45q0 -124 32 -238t90.5 -213.5t140.5 -181.5t181.5 -140.5
t214 -90.5t237.5 -32t237.5 32t214 90.5t181.5 140.5t140.5 181.5t90.5 214t32 237.5t-32 237.5t-90.5 214t-140.5 181.5t-181.5 140.5t-214 90.5t-237.5 32q-26 0 -45 19t-19 45t19 45t45 19q141 0 272 -36.5t245 -103t207.5 -160t160 -207.5t103 -245t36.5 -272zM1024 384
q-26 0 -45 19t-19 45t19 45t45 19q106 0 199 40.5t162.5 110t110 162.5t40.5 199t-40.5 199t-110 162.5t-162.5 110t-199 40.5q-26 0 -45 19t-19 45t19 45t45 19q133 0 249.5 -50t203.5 -137t137 -203.5t50 -249.5t-50 -249.5t-137 -203.5t-203.5 -137t-249.5 -50zM960 1216
q0 26 19 45t45 19q53 0 99.5 -20t81.5 -55t55 -81.5t20 -99.5q0 -26 -19 -45t-45 -19t-45 19t-19 45q0 27 -10 50t-27.5 40.5t-40.5 27.5t-50 10q-26 0 -45 19t-19 45z" fill="#0296AA" transform="scale(1,-1) translate(0, -2048.25)" /></g>
</svg>