<svg viewBox="0 0 32 32" fill="none" xmlns="http://www.w3.org/2000/svg"><path d="M2 8a3 3 0 013-3h19a6 6 0 016 6v13a3 3 0 01-3 3H8a6 6 0 01-6-6V8z" fill="url(#prefix__paint0_linear_82_8882)"/><path d="M3 8a2 2 0 012-2h19a5 5 0 015 5v13a2 2 0 01-2 2H8a5 5 0 01-5-5V8z" fill="url(#prefix__paint1_linear_82_8882)"/><path d="M3 8a2 2 0 012-2h19a5 5 0 015 5v13a2 2 0 01-2 2H8a5 5 0 01-5-5V8z" fill="url(#prefix__paint2_radial_82_8882)"/><path d="M22 22.75c0 .69-.56 1.25-1.25 1.25H15v-3a4 4 0 00-4-4h-1v-3.125c0-1.036.84-1.875 1.875-1.875H22v10.75z" fill="url(#prefix__paint3_radial_82_8882)"/><path d="M22 22.75c0 .69-.56 1.25-1.25 1.25H15v-3a4 4 0 00-4-4h-1v-3.125c0-1.036.84-1.875 1.875-1.875H22v10.75z" fill="url(#prefix__paint4_radial_82_8882)" fill-opacity=".7"/><path d="M17.248 14c-.69 0-1.248.559-1.248 1.248v2a1.25 1.25 0 01-1.253 1.25l-.63-.003A3.991 3.991 0 0011 17h-1v-1.125c0-1.036.84-1.875 1.875-1.875h5.373z" fill="url(#prefix__paint5_linear_82_8882)"/><path d="M17.248 14c-.69 0-1.248.559-1.248 1.248v2a1.25 1.25 0 01-1.253 1.25l-.63-.003A3.991 3.991 0 0011 17h-1v-1.125c0-1.036.84-1.875 1.875-1.875h5.373z" fill="url(#prefix__paint6_linear_82_8882)" fill-opacity=".3"/><path d="M17.5 14h-5.156A2.344 2.344 0 0010 16.344V11.5A2.5 2.5 0 0112.5 9h5v5z" fill="url(#prefix__paint7_linear_82_8882)"/><path d="M17.5 14h-5.156A2.344 2.344 0 0010 16.344V11.5A2.5 2.5 0 0112.5 9h5v5z" fill="url(#prefix__paint8_radial_82_8882)"/><path d="M17.5 14h-5.156A2.344 2.344 0 0010 16.344V11.5A2.5 2.5 0 0112.5 9h5v5z" fill="url(#prefix__paint9_linear_82_8882)"/><path d="M22 10.25C22 9.56 21.44 9 20.75 9h-3.5c-.69 0-1.25.56-1.25 1.25v2.5c0 .69.56 1.25 1.25 1.25h3.5c.69 0 1.25-.56 1.25-1.25v-2.5z" fill="url(#prefix__paint10_radial_82_8882)"/><rect x="1" y="18" width="13" height="13" rx="3" fill="url(#prefix__paint11_radial_82_8882)"/><rect x="1" y="18" width="13" height="13" rx="3" fill="url(#prefix__paint12_radial_82_8882)" fill-opacity=".3"/><path d="M10.723 28h-1.89l-1.187-2.23a6.86 6.86 0 01-.097-.186 6.566 6.566 0 01-.064-.166h-.02c-.028.078-.056.141-.082.19a7.89 7.89 0 00-.093.18L6.06 28H4.277l2.139-3.505L4.424 21h1.865l1.055 1.992c.042.081.078.153.107.214.033.059.065.129.098.21h.02l.107-.224.117-.22L8.887 21h1.777l-2.021 3.441L10.723 28z" fill="#fff"/><defs><radialGradient id="prefix__paint2_radial_82_8882" cx="0" cy="0" r="1" gradientUnits="userSpaceOnUse" gradientTransform="rotate(49.086 -6.62 17.984) scale(20.9522 19.4433)"><stop offset=".177" stop-color="#fff"/><stop offset="1" stop-color="#EFEFEF"/></radialGradient><radialGradient id="prefix__paint3_radial_82_8882" cx="0" cy="0" r="1" gradientUnits="userSpaceOnUse" gradientTransform="rotate(-132.58 16.49 7.669) scale(16.7498 12.9666)"><stop offset=".065" stop-color="#379539"/><stop offset=".422" stop-color="#297C2D"/><stop offset=".703" stop-color="#15561C"/></radialGradient><radialGradient id="prefix__paint4_radial_82_8882" cx="0" cy="0" r="1" gradientUnits="userSpaceOnUse" gradientTransform="rotate(-135 10.216 5.336) scale(6.77644 5.24588)"><stop stop-color="#073B10"/><stop offset=".992" stop-color="#084A13" stop-opacity="0"/></radialGradient><radialGradient id="prefix__paint8_radial_82_8882" cx="0" cy="0" r="1" gradientUnits="userSpaceOnUse" gradientTransform="matrix(-3.75784 0 0 -11.5142 17.23 13.621)"><stop offset=".292" stop-color="#4EB43B"/><stop offset="1" stop-color="#72CC61" stop-opacity="0"/></radialGradient><radialGradient id="prefix__paint10_radial_82_8882" cx="0" cy="0" r="1" gradientUnits="userSpaceOnUse" gradientTransform="rotate(-136.32 13.93 2.948) scale(8.25293 8.40676)"><stop offset=".44" stop-color="#79E96D"/><stop offset="1" stop-color="#D0EB76"/></radialGradient><radialGradient id="prefix__paint11_radial_82_8882" cx="0" cy="0" r="1" gradientUnits="userSpaceOnUse" gradientTransform="rotate(45 -21.228 10.207) scale(18.3848 52.3364)"><stop stop-color="#20A85E"/><stop offset=".944" stop-color="#09442A"/></radialGradient><radialGradient id="prefix__paint12_radial_82_8882" cx="0" cy="0" r="1" gradientUnits="userSpaceOnUse" gradientTransform="matrix(0 9.1 -10.4813 0 7.5 25.8)"><stop offset=".58" stop-color="#33A662" stop-opacity="0"/><stop offset=".974" stop-color="#98F0B0"/></radialGradient><linearGradient id="prefix__paint0_linear_82_8882" x1="11.042" y1="5" x2="13.385" y2="27.366" gradientUnits="userSpaceOnUse"><stop stop-color="#BBB"/><stop offset="1" stop-color="#888"/></linearGradient><linearGradient id="prefix__paint1_linear_82_8882" x1="10.222" y1="6" x2="12.181" y2="26.367" gradientUnits="userSpaceOnUse"><stop stop-color="#fff"/><stop offset="1" stop-color="#EBEBEB"/></linearGradient><linearGradient id="prefix__paint5_linear_82_8882" x1="8.077" y1="19.679" x2="15.799" y2="19.679" gradientUnits="userSpaceOnUse"><stop stop-color="#52D17C"/><stop offset=".329" stop-color="#4AA647"/></linearGradient><linearGradient id="prefix__paint6_linear_82_8882" x1="15.639" y1="14" x2="15.639" y2="21.89" gradientUnits="userSpaceOnUse"><stop stop-color="#29852F"/><stop offset=".5" stop-color="#4AA647" stop-opacity="0"/></linearGradient><linearGradient id="prefix__paint7_linear_82_8882" x1="10.276" y1="17.798" x2="19.21" y2="12.444" gradientUnits="userSpaceOnUse"><stop stop-color="#66D052"/><stop offset="1" stop-color="#85E972"/></linearGradient><linearGradient id="prefix__paint9_linear_82_8882" x1="13.381" y1="14.061" x2="10" y2="14.061" gradientUnits="userSpaceOnUse"><stop offset=".184" stop-color="#C0E075" stop-opacity="0"/><stop offset="1" stop-color="#D1EB95"/></linearGradient></defs></svg>