<svg xmlns="http://www.w3.org/2000/svg" viewBox="0 0 2048.25 2048.25">
<title>ClassNotebook</title>
<g id="uniF486"><path d="M1984 1664v-384q0 -18 -8 -32q8 -14 8 -32v-384q0 -18 -8 -32q8 -14 8 -32v-384q0 -26 -19 -45t-45 -19h-64q0 -26 -19 -45t-45 -19h-576v-200l-1152 201v1528l1152 207v-200h576q26 0 45 -19t19 -45h64q26 0 45 -19t19 -45zM897 651v766l-144 -8v-514l-286 498l-146 -5
v-706l115 -6v518l307 -534zM1920 384v384h-64v-384h64zM1920 832v384h-64v-384h64zM1920 1280v384h-128v64h-576v-960h384v-64h-384v-128h384v-64h-384v-192h576v960h128zM1690 1480v-58l38 -50l-38 -50v-57l-50 -29l-29 -50h-12v-233l-97 85l-93 -85v233h-14l-29 50l-50 29
v57l-36 50l36 50v58l50 29l29 50h58l50 36l50 -36h58l29 -50zM1503 1280q19 0 37 8.5t31 22t21 31.5t8 37t-8 36.5t-21 30.5t-31 20.5t-37 7.5q-20 0 -38 -7.5t-31.5 -20.5t-21.5 -30.5t-8 -36.5t8 -37t21.5 -31.5t31.5 -22t38 -8.5z" fill="#7719aa" transform="scale(1,-1) translate(0, -2048.25)" /></g>
</svg>