<svg width="55" height="34" viewBox="0 0 55 34" fill="none" xmlns="http://www.w3.org/2000/svg">
<path d="M15.1997 5.17676C6.79144 5.17697 0.506359 11.5465 0.0332031 18.6422C0.326111 20.1711 1.28883 23.1903 2.79647 23.0352C4.68102 22.8415 9.42729 23.0352 13.4756 16.2529C16.4328 11.2985 22.5162 5.17665 15.1997 5.17676Z" fill="url(#paint0_radial_325_3060)"/>
<path d="M13.2546 7.82389C10.4283 11.9652 6.62382 17.899 5.33976 19.7663C3.81345 21.986 -0.228734 21.0431 0.106131 17.8615C0.0731203 18.1198 0.0477652 18.3801 0.0302846 18.6423C-0.522684 26.9197 6.569 33.7939 15.3937 33.7939C25.1198 33.7939 48.3155 22.5792 45.968 11.3426C43.4939 4.73752 36.5398 0 28.6587 0C20.7775 0 15.7266 4.20192 13.2546 7.82389Z" fill="url(#paint1_radial_325_3060)"/>
<path d="M13.2546 7.82389C10.4283 11.9652 6.62382 17.899 5.33976 19.7663C3.81345 21.986 -0.228734 21.0431 0.106131 17.8615C0.0731203 18.1198 0.0477652 18.3801 0.0302846 18.6423C-0.522684 26.9197 6.569 33.7939 15.3937 33.7939C25.1198 33.7939 48.3155 22.5792 45.968 11.3426C43.4939 4.73752 36.5398 0 28.6587 0C20.7775 0 15.7266 4.20192 13.2546 7.82389Z" fill="url(#paint2_radial_325_3060)" fill-opacity="0.4"/>
<path d="M13.2546 7.82389C10.4283 11.9652 6.62382 17.899 5.33976 19.7663C3.81345 21.986 -0.228734 21.0431 0.106131 17.8615C0.0731203 18.1198 0.0477652 18.3801 0.0302846 18.6423C-0.522684 26.9197 6.569 33.7939 15.3937 33.7939C25.1198 33.7939 48.3155 22.5792 45.968 11.3426C43.4939 4.73752 36.5398 0 28.6587 0C20.7775 0 15.7266 4.20192 13.2546 7.82389Z" fill="url(#paint3_radial_325_3060)"/>
<path d="M13.2546 7.82389C10.4283 11.9652 6.62382 17.899 5.33976 19.7663C3.81345 21.986 -0.228734 21.0431 0.106131 17.8615C0.0731203 18.1198 0.0477652 18.3801 0.0302846 18.6423C-0.522684 26.9197 6.569 33.7939 15.3937 33.7939C25.1198 33.7939 48.3155 22.5792 45.968 11.3426C43.4939 4.73752 36.5398 0 28.6587 0C20.7775 0 15.7266 4.20192 13.2546 7.82389Z" fill="url(#paint4_radial_325_3060)" fill-opacity="0.6"/>
<path d="M13.2546 7.82389C10.4283 11.9652 6.62382 17.899 5.33976 19.7663C3.81345 21.986 -0.228734 21.0431 0.106131 17.8615C0.0731203 18.1198 0.0477652 18.3801 0.0302846 18.6423C-0.522684 26.9197 6.569 33.7939 15.3937 33.7939C25.1198 33.7939 48.3155 22.5792 45.968 11.3426C43.4939 4.73752 36.5398 0 28.6587 0C20.7775 0 15.7266 4.20192 13.2546 7.82389Z" fill="url(#paint5_radial_325_3060)" fill-opacity="0.9"/>
<path d="M15.2539 33.7987C15.2539 33.7987 38.477 33.841 42.4161 33.841C49.5647 33.841 55 28.4399 55 22.1375C55.0001 15.8352 49.4557 10.4668 42.4162 10.4668C35.3767 10.4668 31.3228 15.3405 28.278 20.6604C24.7101 26.8943 20.1587 33.7239 15.2539 33.7987Z" fill="url(#paint6_linear_325_3060)"/>
<path d="M15.2539 33.7987C15.2539 33.7987 38.477 33.841 42.4161 33.841C49.5647 33.841 55 28.4399 55 22.1375C55.0001 15.8352 49.4557 10.4668 42.4162 10.4668C35.3767 10.4668 31.3228 15.3405 28.278 20.6604C24.7101 26.8943 20.1587 33.7239 15.2539 33.7987Z" fill="url(#paint7_radial_325_3060)" fill-opacity="0.4"/>
<path d="M15.2539 33.7987C15.2539 33.7987 38.477 33.841 42.4161 33.841C49.5647 33.841 55 28.4399 55 22.1375C55.0001 15.8352 49.4557 10.4668 42.4162 10.4668C35.3767 10.4668 31.3228 15.3405 28.278 20.6604C24.7101 26.8943 20.1587 33.7239 15.2539 33.7987Z" fill="url(#paint8_radial_325_3060)" fill-opacity="0.9"/>
<defs>
<radialGradient id="paint0_radial_325_3060" cx="0" cy="0" r="1" gradientUnits="userSpaceOnUse" gradientTransform="translate(1.076 7.03652) rotate(47.9553) scale(16.5847 27.8111)">
<stop stop-color="#4894FE"/>
<stop offset="0.695072" stop-color="#0934B3"/>
</radialGradient>
<radialGradient id="paint1_radial_325_3060" cx="0" cy="0" r="1" gradientUnits="userSpaceOnUse" gradientTransform="translate(47.6102 -11.4346) rotate(133.131) scale(71.4191 53.3489)">
<stop offset="0.165327" stop-color="#23C0FE"/>
<stop offset="0.534" stop-color="#1C91FF"/>
</radialGradient>
<radialGradient id="paint2_radial_325_3060" cx="0" cy="0" r="1" gradientUnits="userSpaceOnUse" gradientTransform="translate(12.3232 7.94824) rotate(-142.156) scale(14.698 33.1026)">
<stop stop-color="white"/>
<stop offset="0.660528" stop-color="#ADC0FF" stop-opacity="0"/>
</radialGradient>
<radialGradient id="paint3_radial_325_3060" cx="0" cy="0" r="1" gradientUnits="userSpaceOnUse" gradientTransform="translate(28.8019 24.5243) rotate(-141.937) scale(16.5619 24.7605)">
<stop stop-color="#033ACC"/>
<stop offset="1" stop-color="#368EFF" stop-opacity="0"/>
</radialGradient>
<radialGradient id="paint4_radial_325_3060" cx="0" cy="0" r="1" gradientUnits="userSpaceOnUse" gradientTransform="translate(11.3202 -1.06915) rotate(64.9086) scale(35.1423 39.9366)">
<stop offset="0.592618" stop-color="#3464E3" stop-opacity="0"/>
<stop offset="1" stop-color="#033ACC"/>
</radialGradient>
<radialGradient id="paint5_radial_325_3060" cx="0" cy="0" r="1" gradientUnits="userSpaceOnUse" gradientTransform="translate(47.0092 -7.83216) rotate(137.218) scale(53.117 82.967)">
<stop stop-color="#4BFDE8"/>
<stop offset="0.543937" stop-color="#4BFDE8" stop-opacity="0"/>
</radialGradient>
<linearGradient id="paint6_linear_325_3060" x1="35.1393" y1="33.8173" x2="35.1393" y2="10.744" gradientUnits="userSpaceOnUse">
<stop stop-color="#0086FF"/>
<stop offset="0.49" stop-color="#00BBFF"/>
</linearGradient>
<radialGradient id="paint7_radial_325_3060" cx="0" cy="0" r="1" gradientUnits="userSpaceOnUse" gradientTransform="translate(22.1107 13.2158) rotate(20.1536) scale(24.7378 44.2146)">
<stop stop-color="white"/>
<stop offset="0.785262" stop-color="white" stop-opacity="0"/>
</radialGradient>
<radialGradient id="paint8_radial_325_3060" cx="0" cy="0" r="1" gradientUnits="userSpaceOnUse" gradientTransform="translate(54.2231 8.65514) rotate(141.424) scale(33.1861 32.8243)">
<stop stop-color="#4BFDE8"/>
<stop offset="0.584724" stop-color="#4BFDE8" stop-opacity="0"/>
</radialGradient>
</defs>
</svg>
