<svg xmlns="http://www.w3.org/2000/svg" viewBox="0 0 2048.25 2048.25">
<title>Security</title>
<g id="uniED85"><path d="M867 587q65 -33 118 -81t90 -108t57 -128.5t20 -141.5h-128q0 79 -30 149t-82.5 122.5t-122.5 82.5t-149 30q-80 0 -149.5 -30t-122 -82.5t-82.5 -122.5t-30 -149h-128q0 73 20 141.5t57 128.5t90 108t118 81q-74 54 -115.5 135.5t-41.5 173.5q0 79 30 149t82.5 122.5
t122 82.5t149.5 30q92 0 173.5 -41.5t135.5 -115.5q38 75 97.5 134.5t134.5 96.5q-74 55 -115.5 136.5t-41.5 173.5q0 79 30 149t82.5 122.5t122 82.5t149.5 30q79 0 149 -30t122.5 -82.5t82.5 -122.5t30 -149q0 -94 -43 -177t-120 -137q47 -25 90 -59.5t78.5 -76.5
t62.5 -90.5t43 -99.5h-134q-22 52 -59 98.5t-85 81.5t-103.5 55t-113.5 20q-80 0 -149.5 -30t-122 -82t-82.5 -122t-30 -149q0 -92 -41.5 -173.5t-115.5 -135.5zM1408 1920q-53 0 -99.5 -20t-81.5 -55t-55 -81.5t-20 -99.5t20 -99.5t55 -81.5t81.5 -55t99.5 -20t99.5 20
t81.5 55t55 81.5t20 99.5t-20 99.5t-55 81.5t-81.5 55t-99.5 20zM384 896q0 -53 20 -99.5t55 -81.5t81.5 -55t99.5 -20t99.5 20t81.5 55t55 81.5t20 99.5t-20 99.5t-55 81.5t-81.5 55t-99.5 20t-99.5 -20t-81.5 -55t-55 -81.5t-20 -99.5zM2048 512v-512h-640v512h64v128
q0 53 20 99.5t55 81.5t81.5 55t99.5 20t99.5 -20t81.5 -55t55 -81.5t20 -99.5v-128h64zM1600 512h256v128q0 27 -10 50t-27.5 40.5t-40.5 27.5t-50 10t-50 -10t-40.5 -27.5t-27.5 -40.5t-10 -50v-128zM1920 384h-384v-256h384v256z" fill="#0C7ED9" transform="scale(1,-1) translate(0, -2048.25)" /></g>
</svg>