<svg xmlns="http://www.w3.org/2000/svg" viewBox="0 0 2048.25 2048.25">
<title>StaffNotebook</title>
<g id="uniF48C"><path d="M1984 1664v-384q0 -16 -8 -32q8 -16 8 -32v-384q0 -16 -8 -32q8 -16 8 -32v-384q0 -22 -8.5 -34.5t-22 -19t-30 -8.5t-33.5 -2h-34q0 -26 -19 -45t-45 -19h-576v-200l-1152 201v1528l1152 207v-200h576q26 0 45 -19t19 -45h34q17 0 33.5 -2t30 -8.5t22 -19t8.5 -34.5z
M897 651v766l-145 -8v-257t1 -257l-286 498l-146 -5v-706l115 -6v518l307 -534zM1920 384v384h-64v-384h64zM1920 832v384h-64v-384h64zM1920 1280v384h-128v64h-576v-397l192 77l320 -128l-64 -26v-198q0 -14 -9 -23t-23 -9t-23 9t-9 23v173l-192 -77l-192 77v-461h384v-64
h-384v-128h384v-64h-384v-192h576v960h128zM1280 1117l128 -51l128 51v-93q0 -19 -15 -31t-36 -19.5t-42.5 -10.5t-34.5 -3t-34.5 3t-42.5 10.5t-36 19.5t-15 31v93z" fill="#7719aa" transform="scale(1,-1) translate(0, -2048.25)" /></g>
</svg>