<svg viewBox="0 0 32 32" fill="none" xmlns="http://www.w3.org/2000/svg">
<path d="M17.3333 22.6667H10.6686L7.97261 26.3777L6 27.7852V28.0001H17.3333C18.0406 28.0001 18.7189 27.7191 19.219 27.219C19.719 26.7189 20 26.0407 20 25.3334C20 24.6262 19.719 23.9479 19.219 23.4478C18.7189 22.9477 18.0406 22.6667 17.3333 22.6667Z" fill="#19428A"/>
<path d="M22.6667 14.6667H16.4792L12.6055 20.0001H22.6667C23.3739 20.0001 24.0522 19.7191 24.5523 19.219C25.0524 18.7189 25.3333 18.0407 25.3333 17.3334C25.3333 16.6262 25.0524 15.9479 24.5523 15.4478C24.0522 14.9477 23.3739 14.6667 22.6667 14.6667Z" fill="#185ABD"/>
<path d="M28 6.66675H22.2897L22.2533 6.71754L18.416 12.0001H28C28.7073 12.0001 29.3855 11.7191 29.8856 11.219C30.3857 10.7189 30.6667 10.0407 30.6667 9.33341C30.6667 8.62617 30.3857 7.94789 29.8856 7.4478C29.3855 6.9477 28.7073 6.66675 28 6.66675Z" fill="#185ABD"/>
<path opacity="0.2" d="M7.972 26.3774L6 27.7854V28.0001H9.14267L9.4 27.8161L13.14 22.6667H10.668L7.972 26.3774Z" fill="#242424"/>
<path opacity="0.2" d="M12.6055 20.0001H15.0775L18.9508 14.6667H16.4788L12.6055 20.0001Z" fill="#242424"/>
<path opacity="0.2" d="M22.2893 6.66675L22.2533 6.71741L18.416 12.0001H20.888L23.8747 7.88808L24.756 6.66675H22.2893Z" fill="#242424"/>
<path d="M17.0816 3.0166L2.67169 22.7709L1.15046 27.8329C1.12305 27.9276 1.12517 28.0284 1.15654 28.1219C1.18791 28.2153 1.24704 28.297 1.32604 28.356L1.32684 28.3566L2.23281 29.4152L13.7296 16.512L22.3636 5.61046L17.6689 2.6748L17.0816 3.0166Z" fill="#479EF5"/>
<path d="M20.2506 4.26636L2.2666 29.1782C2.28729 29.1988 3.59359 29.9649 3.59359 29.9649C3.67268 30.0126 3.76389 30.0365 3.85624 30.0337C3.9486 30.0309 4.03817 30.0014 4.11417 29.9489L8.4484 26.8577L22.7933 7.10769L20.2506 4.26636Z" fill="#0F6CBD"/>
<path d="M3.2444 27.8264L1.32642 28.3564L0.669869 30.53C0.638176 30.716 0.837042 30.9818 0.985442 31.1039C1.13384 31.226 1.60844 31.4115 1.79823 31.2979L3.59371 29.9647C3.60156 29.9691 3.2444 27.8264 3.2444 27.8264Z" fill="#19428A"/>
<path d="M22.7936 7.10769L24.375 4.91677C24.5084 4.72817 24.4414 4.56023 24.2781 4.33595C22.8581 2.7338 21.0853 1.48351 19.0995 0.683712C19.015 0.679185 18.9306 0.692759 18.8519 0.723526C18.7732 0.754293 18.7019 0.80154 18.6429 0.862099L17.0571 3.04994L22.7936 7.10769Z" fill="#19428A"/>
</svg>
