<svg xmlns="http://www.w3.org/2000/svg" viewBox="0 0 2048.25 2048.25">
<title>StaffHub</title>
<g id="uniF130"><path d="M2048 2048v-2048h-2048v2048h2048zM947 393q88 0 173.5 18t152.5 60.5t108 112.5t41 173q0 76 -26.5 133t-70.5 100t-101.5 76t-118.5 63l-37 18.5t-42.5 22.5t-41 25t-31.5 26q-20 20 -28.5 43t-8.5 52q0 35 16 58.5t40.5 38t55 20.5t59.5 6q37 0 70.5 -4.5t65 -13.5
t62 -22.5t62.5 -31.5q4 -2 7 -2q14 0 14 14v220q0 9 -9 13q-29 13 -65.5 21t-75.5 13t-77 7t-69 2q-85 0 -165 -21t-142.5 -65.5t-100.5 -113t-38 -163.5q0 -70 21.5 -122.5t57.5 -93t81.5 -71t92.5 -55.5t92.5 -47.5t81.5 -47.5t57.5 -54t21.5 -68q0 -36 -16.5 -60
t-42.5 -38.5t-57.5 -20t-61.5 -5.5q-46 0 -85 7t-74 21t-69.5 33.5t-71.5 45.5q-4 2 -8 2q-5 0 -9.5 -3.5t-4.5 -9.5v-236q0 -8 7 -12q33 -18 71 -30.5t78.5 -20t81 -10.5t77.5 -3z" fill="#00a99d" transform="scale(1,-1) translate(0, -2048.25)" /></g>
</svg>