<svg xmlns="http://www.w3.org/2000/svg" viewBox="0 0 2048.25 2048.25">
<title>NonProfitPortal</title>
<g id="uniF495"><path d="M925 768q0 -34 -24 -58l-193 -193q-24 -24 -59 -24t-59 23.5t-24 58.5t24 59l193 193q24 24 59 24t59 -24t24 -59zM720 872q0 -35 -24 -59l-143 -142q-24 -24 -58 -24q-35 0 -59 23.5t-24 58.5t24 59l142 143q11 11 27 17.5t32 6.5q35 0 59 -24t24 -59zM1065 599
q0 -33 -25 -58l-178 -178q-24 -24 -59 -24t-59 23.5t-24 58.5t24 59l179 178q25 25 58 25q34 0 59 -24.5t25 -59.5zM957 184q-35 0 -59 24t-24 59t24 59l135 134q25 25 59 25q35 0 59 -25t24 -60q0 -16 -7 -31t-18 -26l-134 -135q-24 -24 -59 -24zM1920 1337
q0 -88 -23 -154.5t-62 -123t-90.5 -108t-107.5 -109.5l-590 593l-297 -295q-30 -28 -70 -28q-41 0 -69.5 28.5t-28.5 69.5t29 70l428 426q74 73 168 111.5t198 38.5q107 0 201 -41t163.5 -112t110 -165.5t40.5 -200.5zM1648 733q0 -35 -24 -59t-59 -24q-34 0 -58 24
l-307 308q-7 7 -19 7q-11 0 -19 -7t-8 -19q0 -10 8 -18l336 -336q25 -25 25 -59q0 -35 -24.5 -59t-59.5 -24q-34 0 -58 24l-336 336q-7 7 -19 7q-11 0 -18.5 -7.5t-7.5 -18.5q0 -10 8 -18l336 -336q24 -24 24 -59t-24 -59t-59 -24q-26 0 -42 11.5t-33 29.5q10 21 10 49
q0 27 -10.5 50.5t-28 41t-41.5 27t-51 9.5q20 31 20 69q0 27 -10 50.5t-27.5 41t-40.5 27.5t-49 10q-5 0 -9.5 -0.5t-9.5 -1.5q3 11 5 21.5t2 21.5q0 26 -10 49.5t-27.5 41t-41 27.5t-49.5 10q-21 0 -40.5 -7t-36.5 -19q0 27 -10 50.5t-27 41t-40.5 27.5t-50.5 10
q-25 0 -49 -9.5t-42 -27.5l-127 -128q-60 61 -113 113.5t-92.5 110t-62.5 125.5t-23 160q0 106 41.5 199t112 162.5t164.5 110t199 40.5q97 0 186 -34.5t161 -99.5l-413 -410q-20 -20 -31.5 -46.5t-11.5 -55.5q0 -30 11.5 -56t31 -45.5t46 -31t55.5 -11.5t55.5 11t46.5 31
l265 264l577 -580q24 -24 24 -59zM1065 194l111 111q8 -18 8 -36q0 -35 -24 -59t-59 -24q-18 0 -36 8z" fill="#0078D7" transform="scale(1,-1) translate(0, -2048.25)" /></g>
</svg>