<svg xmlns="http://www.w3.org/2000/svg" viewBox="0 0 2048.25 2048.25">
<title>Newsfeed</title>
<g id="uniE900"><path d="M2048 1536v-896q0 -53 -20.5 -99.5t-55 -81t-81.5 -55t-99 -20.5h-1543q-51 0 -96.5 20t-79 53.5t-53.5 79t-20 96.5v1159h1792v-256h256zM1920 1408h-128v-704q0 -26 -19 -45t-45 -19t-45 19t-19 45v960h-1536v-1031q0 -25 9.5 -47t26 -38.5t38.5 -26t47 -9.5h1543
q27 0 50 10t40.5 27.5t27.5 40.5t10 50v768zM1536 1408h-1280v128h1280v-128zM1536 640h-512v128h512v-128zM1536 896h-512v128h512v-128zM1536 1152h-512v128h512v-128zM896 640h-640v643h640v-643zM384 768h384v387h-384v-387z" fill="#0072C6" transform="scale(1,-1) translate(0, -2048.25)" /></g>
</svg>