<svg width="100%"  height="100%" viewBox="0 0 32 32" fill="none" xmlns="http://www.w3.org/2000/svg">
<g clip-path="url(#clip0_1663_94)">
<path d="M2.56327 15.6887C0.139765 17.1813 1.68334 21.1044 4.65848 22.757C12.5051 26.9871 25.5328 25.3608 20.0663 21.0657C15.3519 17.3615 8.3393 12.1313 2.56327 15.6887Z" fill="url(#paint0_linear_1663_94)"/>
<path d="M2.56327 15.6887C0.139765 17.1813 1.68334 21.1044 4.65848 22.757C12.5051 26.9871 25.5328 25.3608 20.0663 21.0657C15.3519 17.3615 8.3393 12.1313 2.56327 15.6887Z" fill="url(#paint1_radial_1663_94)"/>
<circle cx="15.6672" cy="9.33344" r="8.9997" fill="url(#paint2_radial_1663_94)"/>
<path d="M19.9023 30.1799L17.334 28.2114L24.1929 24.3328L29.428 28.1414C30.1942 28.7373 30.126 29.3537 29.6061 29.8031C29.1287 30.2157 28.6047 30.5616 28.049 30.8389C25.5133 32.1045 22.3195 31.9424 19.9023 30.1799Z" fill="url(#paint3_linear_1663_94)"/>
<path d="M2.48165 26.5184C-1.62324 23.3438 0.0762016 17.0326 2.48164 15.7363C-0.934186 18.3145 6.49638 22.8125 15.9825 21.5916C21.4187 20.8919 25.5852 18.1376 29.4028 14.2411C30.4867 13.1348 32.0005 13.6856 32 15.3874C32 21.6341 25.6154 26.5184 21.3286 28.1759C14.398 30.8557 6.63791 29.7326 2.48165 26.5184Z" fill="url(#paint4_linear_1663_94)"/>
<path d="M2.48165 26.5184C-1.62324 23.3438 0.0762016 17.0326 2.48164 15.7363C-0.934186 18.3145 6.49638 22.8125 15.9825 21.5916C21.4187 20.8919 25.5852 18.1376 29.4028 14.2411C30.4867 13.1348 32.0005 13.6856 32 15.3874C32 21.6341 25.6154 26.5184 21.3286 28.1759C14.398 30.8557 6.63791 29.7326 2.48165 26.5184Z" fill="url(#paint5_linear_1663_94)"/>
<path d="M2.48165 26.5184C-1.62324 23.3438 0.0762016 17.0326 2.48164 15.7363C-0.934186 18.3145 6.49638 22.8125 15.9825 21.5916C21.4187 20.8919 25.5852 18.1376 29.4028 14.2411C30.4867 13.1348 32.0005 13.6856 32 15.3874C32 21.6341 25.6154 26.5184 21.3286 28.1759C14.398 30.8557 6.63791 29.7326 2.48165 26.5184Z" fill="url(#paint6_radial_1663_94)"/>
</g>
<defs>
<linearGradient id="paint0_linear_1663_94" x1="17.5812" y1="22.2082" x2="7.4723" y2="14.6005" gradientUnits="userSpaceOnUse">
<stop stop-color="#4B60FA"/>
<stop offset="0.979167" stop-color="#790FE6"/>
</linearGradient>
<radialGradient id="paint1_radial_1663_94" cx="0" cy="0" r="1" gradientUnits="userSpaceOnUse" gradientTransform="translate(10.8051 14.1429) rotate(116.148) scale(13.0038 16.8343)">
<stop offset="0.125681" stop-color="#5400AB"/>
<stop offset="0.351371" stop-color="#790FE5" stop-opacity="0"/>
</radialGradient>
<radialGradient id="paint2_radial_1663_94" cx="0" cy="0" r="1" gradientUnits="userSpaceOnUse" gradientTransform="translate(10.1289 3.79516) rotate(40.1009) scale(17.196)">
<stop stop-color="#FECCF6"/>
<stop offset="0.416338" stop-color="#F6A9FD"/>
<stop offset="0.983947" stop-color="#AA79FC"/>
</radialGradient>
<linearGradient id="paint3_linear_1663_94" x1="18.8822" y1="29.7258" x2="32.0587" y2="37.4493" gradientUnits="userSpaceOnUse">
<stop stop-color="#4B60FA"/>
<stop offset="0.979167" stop-color="#790FE6"/>
</linearGradient>
<linearGradient id="paint4_linear_1663_94" x1="1.02895" y1="18.4531" x2="28.1624" y2="27.7457" gradientUnits="userSpaceOnUse">
<stop stop-color="#FECAF7"/>
<stop offset="0.307292" stop-color="#E69EFD"/>
<stop offset="1" stop-color="#A974FF"/>
</linearGradient>
<linearGradient id="paint5_linear_1663_94" x1="1.01273" y1="16.7486" x2="30.0138" y2="25.1527" gradientUnits="userSpaceOnUse">
<stop offset="0.106309" stop-color="#FECAF7"/>
<stop offset="0.516916" stop-color="#E69EFD"/>
<stop offset="1" stop-color="#A974FF"/>
</linearGradient>
<radialGradient id="paint6_radial_1663_94" cx="0" cy="0" r="1" gradientUnits="userSpaceOnUse" gradientTransform="translate(34.8084 27.8329) rotate(-163.94) scale(37.8821 15.6736)">
<stop offset="0.878357" stop-color="#FABAFA" stop-opacity="0"/>
<stop offset="1" stop-color="#F1A5FD"/>
</radialGradient>
<clipPath id="clip0_1663_94">
<rect width="32" height="32" fill="white"/>
</clipPath>
</defs>
</svg>
