<svg xmlns="http://www.w3.org/2000/svg" viewBox="0 0 2048.25 2048.25">
<title>Classroom</title>
<g id="uniEF75"><path d="M960 2048q16 0 39 -10t46 -24t44 -29t33 -25q68 -53 140 -123t139 -151t126.5 -170.5t104 -183t70.5 -188t26 -184.5q0 -160 -51 -287t-143.5 -216.5t-222.5 -140t-287 -57.5v-259h-128v259q-158 7 -287.5 57.5t-222 140t-143.5 216.5t-51 287q0 90 26 184.5t70.5 188
t104 183t126.5 170.5t138.5 151t140.5 123q12 10 33 25t44 29t45.5 24t39.5 10zM896 1856q-63 -45 -130 -107t-131 -134.5t-121 -153.5t-100.5 -165.5t-68.5 -169.5t-25 -166q0 -133 41 -236.5t116 -176t181.5 -113t237.5 -47.5v1469zM1024 1332q48 3 96.5 17.5t93.5 37.5
t85 54t73 66q-74 97 -161 187t-187 162v-524zM1024 952q72 0 147 14.5t145 43.5t131 73.5t104 104.5q-26 66 -60 127.5t-74 119.5q-37 -39 -82.5 -73.5t-96.5 -60.5t-105.5 -42t-108.5 -20v-287zM1024 387q131 7 237.5 47.5t181.5 112.5t116 175.5t41 237.5q0 35 -7.5 62.5
t-18.5 59.5q-50 -57 -114.5 -97.5t-137 -67t-149 -39.5t-149.5 -14v-477z" fill="#0072c6" transform="scale(1,-1) translate(0, -2048.25)" /></g>
</svg>